Coordinates
version=1
nRows=8
nColumns=46
inDegrees=yes

Units are S.I. units (second, meters, Newtons, ...)
Angles are in degrees.

endheader
time	pelvis_tilt	pelvis_list	pelvis_rotation	pelvis_tx	pelvis_ty	pelvis_tz	bb_angle	bb_tx	bb_ty	bb_tz	hip_flexion_r	hip_adduction_r	hip_rotation_r	knee_angle_r	knee_angle_r_beta	ankle_angle_r	subtalar_angle_r	mtp_angle_r	crank_angle_r	hip_flexion_l	hip_adduction_l	hip_rotation_l	knee_angle_l	knee_angle_l_beta	ankle_angle_l	subtalar_angle_l	mtp_angle_l	crank_angle_l	lumbar_extension	lumbar_bending	lumbar_rotation	arm_flex_r	arm_add_r	arm_rot_r	elbow_flex_r	pro_sup_r	wrist_flex_r	wrist_dev_r	arm_flex_l	arm_add_l	arm_rot_l	elbow_flex_l	pro_sup_l	wrist_flex_l	wrist_dev_l
      5.00500000	    -20.19570238	      4.05413732	     10.39959885	      0.37544994	      1.10805960	     -0.25996013	      0.00000000	      0.50000000	      0.00000000	      0.25000000	     42.44622869	     -9.05736984	      0.02830583	     67.45858263	      1.17737438	    -25.87106909	     -9.52178347	      0.00000000	      0.00000000	     67.71859841	     -2.45123531	     -1.52164976	     75.64776476	      1.32030257	      4.80493426	     -3.75378152	      0.00000000	      0.00000000	    -67.38512920	     -4.51060993	     -6.53463604	     64.18778338	    -18.74416664	     27.63780439	     60.76999408	     45.06280882	      0.00000000	      0.00000000	     66.89694229	    -10.73941954	     19.24495659	     74.51743251	     45.36873994	      0.00000000	      0.00000000
      5.01000000	    -20.17371477	      3.68563523	     10.03266909	      0.37518158	      1.10599976	     -0.26045927	      0.00000000	      0.50000000	      0.00000000	      0.25000000	     43.72504094	     -8.43543695	      0.46356604	     70.25607242	      1.22619978	    -25.00497773	     -9.69492807	      0.00000000	      0.00000000	     66.85658586	     -3.11117793	     -1.97173672	     73.67382410	      1.28585080	      3.62142033	     -3.73412930	      0.00000000	      0.00000000	    -67.09247481	     -4.00235286	     -8.02198576	     66.04737982	    -15.62349309	     29.67554115	     56.87134744	     44.70859010	      0.00000000	      0.00000000	     64.46582785	    -12.88413598	     15.76235429	     78.87884855	     45.71402268	      0.00000000	      0.00000000
      5.01500000	    -19.81102792	      3.10374615	      9.75989187	      0.37457854	      1.10446504	     -0.26068157	      0.00000000	      0.50000000	      0.00000000	      0.25000000	     44.53922667	     -7.61040398	      0.53928520	     72.86328211	      1.27170418	    -24.10562162	    -10.24694228	      0.00000000	      0.00000000	     65.74123169	     -3.78746045	     -1.95485153	     71.71628522	      1.25168530	      2.36838008	     -3.13568991	      0.00000000	      0.00000000	    -67.10647905	     -3.57644188	     -7.41985881	     66.22794171	    -15.43282087	     29.72966970	     56.91494765	     44.72410797	      0.00000000	      0.00000000	     64.18051801	    -13.08669433	     15.62801859	     78.92515074	     45.71039478	      0.00000000	      0.00000000
      5.02000000	    -19.59256179	      2.55077948	      9.27578999	      0.37421300	      1.10252061	     -0.26062006	      0.00000000	      0.50000000	      0.00000000	      0.25000000	     45.43679529	     -6.60559092	      0.79618928	     75.47538335	      1.31729394	    -22.60584234	    -10.93630708	      0.00000000	      0.00000000	     64.74040270	     -4.66446260	     -2.09632366	     69.84129082	      1.21896048	      1.00367433	     -2.60933162	      0.00000000	      0.00000000	    -66.96322651	     -3.40288754	     -6.95216571	     66.43220748	    -15.19518963	     29.82688493	     56.95421655	     44.74459961	      0.00000000	      0.00000000	     63.72626692	    -13.43180162	     15.37552471	     79.07646238	     45.71381067	      0.00000000	      0.00000000
      5.02500000	    -19.70688658	      2.24989970	      8.56632693	      0.37364135	      1.09968466	     -0.26031438	      0.00000000	      0.50000000	      0.00000000	      0.25000000	     46.98610002	     -5.76609963	      1.48520055	     78.39370239	      1.36822822	    -20.90330421	    -10.45999780	      0.00000000	      0.00000000	     63.99830685	     -5.49263163	     -2.53643800	     68.01011482	      1.18700043	     -0.48760342	     -2.47002976	      0.00000000	      0.00000000	    -66.46953403	     -3.44342540	     -7.34510927	     66.86059231	    -13.91513625	     30.67641702	     56.27571233	     44.75509692	      0.00000000	      0.00000000	     62.26268398	    -14.81319684	     13.93995824	     81.24368248	     45.92600122	      0.00000000	      0.00000000
      5.03000000	    -19.34288207	      1.70548589	      8.09494818	      0.37292483	      1.09740182	     -0.26077197	      0.00000000	      0.50000000	      0.00000000	      0.25000000	     47.93054419	     -4.97821478	      1.51107983	     81.12918722	      1.41597144	    -19.59776145	    -11.00847725	      0.00000000	      0.00000000	     62.86888655	     -6.18053465	     -2.46983454	     66.28122330	      1.15682558	     -1.87985167	     -2.02546358	      0.00000000	      0.00000000	    -66.38491838	     -3.07285460	     -6.70354492	     67.13629792	    -13.72916085	     30.79942352	     56.20705710	     44.75858990	      0.00000000	      0.00000000	     61.78177140	    -15.18303005	     13.75096862	     81.38452939	     45.93406977	      0.00000000	      0.00000000
      5.03500000	    -19.23311137	      1.41243350	      7.45819571	      0.37227183	      1.09467010	     -0.26130028	      0.00000000	      0.50000000	      0.00000000	      0.25000000	     49.26250129	     -4.34902802	      1.93052557	     83.97893426	      1.46570891	    -17.87783274	    -10.46621615	      0.00000000	      0.00000000	     61.83996954	     -6.72104730	     -2.63559615	     64.53917656	      1.12642113	     -3.34639671	     -2.22316643	      0.00000000	      0.00000000	    -66.08389725	     -2.68282811	     -7.57637547	     68.54354884	    -11.79948758	     33.18118874	     53.71809478	     44.67586426	      0.00000000	      0.00000000	     59.76151446	    -17.52695971	     12.07935164	     84.52577626	     46.25103993	      0.00000000	      0.00000000
      5.04000000	    -18.92194904	      0.94044695	      6.85027727	      0.37178108	      1.09214002	     -0.26171941	      0.00000000	      0.50000000	      0.00000000	      0.25000000	     50.31287409	     -3.55153070	      2.06264030	     86.68145584	      1.51287680	    -16.43526389	    -10.80190312	      0.00000000	      0.00000000	     60.63277494	     -7.38913218	     -2.65928872	     62.88353478	      1.09752473	     -4.63659198	     -2.14833013	      0.00000000	      0.00000000	    -65.93330354	     -2.40501507	     -6.89392882	     68.69828467	    -11.67052783	     33.28294743	     53.76071473	     44.69945890	      0.00000000	      0.00000000	     59.22412275	    -17.94793295	     11.95306034	     84.47186643	     46.23358606	      0.00000000	      0.00000000
